<svg xmlns="http://www.w3.org/2000/svg" class="hidden">
    <symbol id="x" viewBox="0 0 469.333 469.333">
		<g>
			<path d="M426.667,0h-384C19.146,0,0,19.135,0,42.667v384c0,23.531,19.146,42.667,42.667,42.667h384
				c23.521,0,42.667-19.135,42.667-42.667v-384C469.333,19.135,450.188,0,426.667,0z M448,426.667
				c0,11.76-9.563,21.333-21.333,21.333h-384c-11.771,0-21.333-9.573-21.333-21.333v-384c0-11.76,9.563-21.333,21.333-21.333h384
				c11.771,0,21.333,9.573,21.333,21.333V426.667z"/>
			<path d="M338.208,131.125c-4.167-4.167-10.917-4.167-15.083,0l-88.458,88.458l-88.458-88.458c-4.167-4.167-10.917-4.167-15.083,0
				c-4.167,4.167-4.167,10.917,0,15.083l88.458,88.458l-88.458,88.458c-4.167,4.167-4.167,10.917,0,15.083
				c2.083,2.083,4.813,3.125,7.542,3.125s5.458-1.042,7.542-3.125l88.458-88.458l88.458,88.458c2.083,2.083,4.813,3.125,7.542,3.125
				c2.729,0,5.458-1.042,7.542-3.125c4.167-4.167,4.167-10.917,0-15.083l-88.458-88.458l88.458-88.458
				C342.375,142.042,342.375,135.292,338.208,131.125z"/>
		</g>
	</symbol>

	<symbol id="x_without_border" viewBox="0 0 16 16">
		<path d="M4.646 4.646a.5.5 0 0 1 .708 0L8 7.293l2.646-2.647a.5.5 0 0 1 .708.708L8.707 8l2.647 2.646a.5.5 0 0 1-.708.708L8 8.707l-2.646 2.647a.5.5 0 0 1-.708-.708L7.293 8L4.646 5.354a.5.5 0 0 1 0-.708z"/>
	</symbol>

	<!-- poms gender -->
	<symbol viewBox="0 0 512 512" id="fem">
		<path d="m416.4530029 160.4530029c0-88.4740066-71.9790039-160.4530029-160.4530029-160.4530029s-160.4530029 71.9789963-160.4530029 160.4530029c0 82.1480103 62.0559998 150.0620117 141.7489929 159.3580017v98.901001h-27.8630066c-10.3300018 0-18.7039948 8.3739929-18.7039948 18.70401 0 10.3299866 8.3739929 18.70401 18.7039948 18.70401h27.8630066v37.1759949c0 10.3299866 8.375 18.7039795 18.7039948 18.7039795 10.3300018 0 18.7039948-8.3739929 18.7039948-18.70401v-37.1759949h27.8640137c10.3299866 0 18.70401-8.375 18.70401-18.70401 0-10.3299866-8.3739929-18.70401-18.70401-18.70401h-27.8640137v-98.901001c79.6930236-9.2949829 141.7490233-77.2099762 141.7490233-159.3579712zm-283.4980011 0c0-67.8470001 55.197998-123.0449982 123.0449982-123.0449982 67.8479919 0 123.0449829 55.197998 123.0449829 123.0449982 0 67.8479919-55.197998 123.0449829-123.0449982 123.0449829s-123.0449829-55.1969909-123.0449829-123.0449829z" fill="#ffc5f0"/><g fill="#ffc5f0"><path d="m246.647995 37.762001c-3.0870056-.2330017-6.2059937-.3530006-9.352005-.3530006-67.8470001 0-123.0449982 55.1980019-123.0449982 123.0449982 0 67.8480072 55.197998 123.0449982 123.0449982 123.0449982 3.1459961 0 6.2649994-.1199951 9.352005-.3529968-63.4949951-4.7940063-113.6930084-57.9909973-113.6930084-122.6920013.0000152-64.7010003 50.1980133-117.8979989 113.6930084-122.6919977z"/><path d="m256 493.29599c0 6.9190063-3.7669983 12.9460144-9.352005 16.1809998 3.2440033 1.8789978 7.0919952 2.8319702 11.1959991 2.4330139 9.6499939-.9389954 16.8599854-9.3439941 16.8599854-19.0400085v-36.75h-13.5090027c-2.868988 0-5.1959991 2.3259888-5.1959991 5.1960144v31.9799804z"/><path d="m256 0c-3.1399994 0-6.2559967.101-9.352005.28 84.1380157 4.8600001 151.1009979 74.8389969 151.1009979 160.1730042 0 80.6170044-59.7659912 147.5269775-137.3139954 158.7769775-2.5480041.3699939-4.4349975 2.5570056-4.4349975 5.1319873v89.1539917c0 2.868988 2.3259888 5.1960144 5.1960144 5.1960144h13.5090027v-98.901001c79.6940002-9.2950134 141.75-77.2099915 141.75-159.3580017-.0020142-88.4739761-71.9810181-160.4529724-160.4550171-160.4529724z"/><path d="m302.5679932 418.7120056h-18.70401c10.3299866 0 18.70401 8.3739929 18.70401 18.70401 0 10.3299866-8.3739929 18.70401-18.70401 18.70401h18.70401c10.3299866 0 18.70401-8.375 18.70401-18.70401 0-10.3300171-8.375-18.70401-18.70401-18.70401z"/></g>
	</symbol>
	<symbol viewBox="0 0 423.184 423.184" id="male">
		<path style="fill:#80bdff;" d="M407.51,0H266.971c-8.882,0-15.673,6.792-15.673,15.673s6.792,15.673,15.673,15.673h102.922
		L264.882,136.359c-28.212-22.988-63.739-37.094-102.922-37.094C72.62,99.265,0,171.886,0,261.224s72.62,161.959,161.959,161.959
		s161.959-72.62,161.959-161.959c0-39.184-14.106-74.71-37.094-102.922L391.837,53.29v102.922c0,8.882,6.792,15.673,15.673,15.673
		s15.673-6.792,15.673-15.673V15.673C423.184,6.792,416.392,0,407.51,0z M161.959,391.837c-72.098,0-130.612-58.514-130.612-130.612
		s58.514-130.612,130.612-130.612s130.612,58.514,130.612,130.612S234.057,391.837,161.959,391.837z"/>
	</symbol>


	<!-- social -->
	<symbol id="fb" viewBox="0 0 1024 1024" >
		<g>
			<path d="M880 112H144c-17.7 0-32 14.3-32 32v736c0 17.7 14.3 32 32 32h736c17.7 0 32-14.3 32-32V144c0-17.7-14.3-32-32-32zm-32 736H663.9V602.2h104l15.6-120.7H663.9v-77.1c0-35 9.7-58.8 59.8-58.8h63.9v-108c-11.1-1.5-49-4.8-93.2-4.8c-92.2 0-155.3 56.3-155.3 159.6v89H434.9v120.7h104.3V848H176V176h672v672z"/>
		</g>
	</symbol>

	<symbol id="wp" viewBox="0 0 448 512">
		<path d="M380.9 97.1C339 55.1 283.2 32 223.9 32c-122.4 0-222 99.6-222 222c0 39.1 10.2 77.3 29.6 111L0 480l117.7-30.9c32.4 17.7 68.9 27 106.1 27h.1c122.3 0 224.1-99.6 224.1-222c0-59.3-25.2-115-67.1-157zm-157 341.6c-33.2 0-65.7-8.9-94-25.7l-6.7-4l-69.8 18.3L72 359.2l-4.4-7c-18.5-29.4-28.2-63.3-28.2-98.2c0-101.7 82.8-184.5 184.6-184.5c49.3 0 95.6 19.2 130.4 54.1c34.8 34.9 56.2 81.2 56.1 130.5c0 101.8-84.9 184.6-186.6 184.6zm101.2-138.2c-5.5-2.8-32.8-16.2-37.9-18c-5.1-1.9-8.8-2.8-12.5 2.8c-3.7 5.6-14.3 18-17.6 21.8c-3.2 3.7-6.5 4.2-12 1.4c-32.6-16.3-54-29.1-75.5-66c-5.7-9.8 5.7-9.1 16.3-30.3c1.8-3.7.9-6.9-.5-9.7c-1.4-2.8-12.5-30.1-17.1-41.2c-4.5-10.8-9.1-9.3-12.5-9.5c-3.2-.2-6.9-.2-10.6-.2c-3.7 0-9.7 1.4-14.8 6.9c-5.1 5.6-19.4 19-19.4 46.3c0 27.3 19.9 53.7 22.6 57.4c2.8 3.7 39.1 59.7 94.8 83.8c35.2 15.2 49 16.5 66.6 13.9c10.7-1.6 32.8-13.4 37.4-26.4c4.6-13 4.6-24.1 3.2-26.4c-1.3-2.5-5-3.9-10.5-6.6z"/>
	</symbol>

	<symbol id="inst" viewBox="0 0 24 24">
		<path d="M12 2c-2.716 0-3.056.012-4.123.06c-1.064.049-1.791.218-2.427.465a4.901 4.901 0 0 0-1.772 1.153A4.902 4.902 0 0 0 2.525 5.45c-.247.636-.416 1.363-.465 2.427C2.011 8.944 2 9.284 2 12s.011 3.056.06 4.123c.049 1.064.218 1.791.465 2.427a4.903 4.903 0 0 0 1.153 1.772a4.903 4.903 0 0 0 1.772 1.153c.636.247 1.363.416 2.427.465c1.067.048 1.407.06 4.123.06s3.056-.012 4.123-.06c1.064-.049 1.791-.218 2.427-.465a4.902 4.902 0 0 0 1.772-1.153a4.902 4.902 0 0 0 1.153-1.772c.247-.636.416-1.363.465-2.427c.048-1.067.06-1.407.06-4.123s-.012-3.056-.06-4.123c-.049-1.064-.218-1.791-.465-2.427a4.902 4.902 0 0 0-1.153-1.772a4.901 4.901 0 0 0-1.772-1.153c-.636-.247-1.363-.416-2.427-.465C15.056 2.012 14.716 2 12 2m0 1.802c2.67 0 2.986.01 4.04.058c.976.045 1.505.207 1.858.344c.466.182.8.399 1.15.748c.35.35.566.684.748 1.15c.136.353.3.882.344 1.857c.048 1.055.058 1.37.058 4.041c0 2.67-.01 2.986-.058 4.04c-.045.976-.208 1.505-.344 1.858a3.1 3.1 0 0 1-.748 1.15c-.35.35-.684.566-1.15.748c-.353.136-.882.3-1.857.344c-1.054.048-1.37.058-4.041.058c-2.67 0-2.987-.01-4.04-.058c-.976-.045-1.505-.208-1.858-.344a3.098 3.098 0 0 1-1.15-.748a3.098 3.098 0 0 1-.748-1.15c-.137-.353-.3-.882-.344-1.857c-.048-1.055-.058-1.37-.058-4.041c0-2.67.01-2.986.058-4.04c.045-.976.207-1.505.344-1.858c.182-.466.399-.8.748-1.15c.35-.35.684-.566 1.15-.748c.353-.137.882-.3 1.857-.344c1.055-.048 1.37-.058 4.041-.058m0 11.531a3.333 3.333 0 1 1 0-6.666a3.333 3.333 0 0 1 0 6.666m0-8.468a5.135 5.135 0 1 0 0 10.27a5.135 5.135 0 0 0 0-10.27m6.538-.203a1.2 1.2 0 1 1-2.4 0a1.2 1.2 0 0 1 2.4 0"/>
	</symbol>

	<!-- Admin -->
	<!-- check -->
	<symbol id="check" viewBox="0 0 515.556 515.556">
		<path d="m0 274.226 176.549 176.886 339.007-338.672-48.67-47.997-290.337 290-128.553-128.552z"/>
	</symbol>

	<!-- just an arrow -->
	<symbol id="arrow" viewBox="0 0 20 20">
		<path d="M5 6l5 5l5-5l2 1l-7 7l-7-7z"/>
	</symbol>

	<!-- Flags -->
	<symbol id="aze" viewBox="0 0 512 512">
		<g>
			<g>
				<path style="fill:#D80027;" d="M512,256c0-31.314-5.632-61.311-15.923-89.043L256,155.826l-240.077,11.13
					C5.633,194.689,0,224.686,0,256s5.633,61.311,15.923,89.043L256,356.174l240.077-11.13C506.368,317.311,512,287.314,512,256z"/>
				<path style="fill:#6DA544;" d="M256,512c110.071,0,203.906-69.472,240.077-166.957H15.923C52.094,442.528,145.929,512,256,512z"/>
				<path style="fill:#338AF3;" d="M15.923,166.957h480.155C459.906,69.472,366.071,0,256,0S52.094,69.472,15.923,166.957z"/>
			</g>
			
			<g>
				<path style="fill:#F0F0F0;" d="M261.565,328.348c-39.956,0-72.348-32.392-72.348-72.348s32.392-72.348,72.348-72.348
				c12.458,0,24.181,3.15,34.415,8.696c-16.056-15.701-38.012-25.392-62.241-25.392c-49.178,0-89.043,39.866-89.043,89.043
				s39.866,89.043,89.043,89.043c24.23,0,46.186-9.691,62.241-25.392C285.746,325.198,274.023,328.348,261.565,328.348z"/>
				<polygon style="fill:#F0F0F0;" points="317.217,205.913 326.8,232.864 352.634,220.582 340.353,246.416 367.304,256 
				340.353,265.584 352.634,291.418 326.8,279.136 317.217,306.087 307.635,279.136 281.8,291.418 294.082,265.584 267.13,256 
				294.082,246.416 281.8,220.582 307.635,232.864 	"/>
			</g>
		</g>
	</symbol>

	<symbol id="germany" viewBox="0 0 512 512">
		<g>
			<path style="fill:#FFDA44;" d="M15.923,345.043C52.094,442.527,145.929,512,256,512s203.906-69.473,240.077-166.957L256,322.783
			L15.923,345.043z"/>
			<path d="M256,0C145.929,0,52.094,69.472,15.923,166.957L256,189.217l240.077-22.261C459.906,69.472,366.071,0,256,0z"/>
			<path style="fill:#D80027;" d="M15.923,166.957C5.633,194.69,0,224.686,0,256s5.633,61.31,15.923,89.043h480.155
			C506.368,317.31,512,287.314,512,256s-5.632-61.31-15.923-89.043H15.923z"/>
		</g>
	</symbol>
	
</svg>