<svg xmlns="http://www.w3.org/2000/svg" style="height: 0; width: 0; position: absolute; visibility: hidden;">
    <symbol id="x" viewBox="0 0 469.333 469.333">
		<g>
			<path d="M426.667,0h-384C19.146,0,0,19.135,0,42.667v384c0,23.531,19.146,42.667,42.667,42.667h384
				c23.521,0,42.667-19.135,42.667-42.667v-384C469.333,19.135,450.188,0,426.667,0z M448,426.667
				c0,11.76-9.563,21.333-21.333,21.333h-384c-11.771,0-21.333-9.573-21.333-21.333v-384c0-11.76,9.563-21.333,21.333-21.333h384
				c11.771,0,21.333,9.573,21.333,21.333V426.667z"/>
			<path d="M338.208,131.125c-4.167-4.167-10.917-4.167-15.083,0l-88.458,88.458l-88.458-88.458c-4.167-4.167-10.917-4.167-15.083,0
				c-4.167,4.167-4.167,10.917,0,15.083l88.458,88.458l-88.458,88.458c-4.167,4.167-4.167,10.917,0,15.083
				c2.083,2.083,4.813,3.125,7.542,3.125s5.458-1.042,7.542-3.125l88.458-88.458l88.458,88.458c2.083,2.083,4.813,3.125,7.542,3.125
				c2.729,0,5.458-1.042,7.542-3.125c4.167-4.167,4.167-10.917,0-15.083l-88.458-88.458l88.458-88.458
				C342.375,142.042,342.375,135.292,338.208,131.125z"/>
		</g>
	</symbol>

	<!-- poms gender -->
	<symbol viewBox="0 0 512 512" id="fem">
		<path d="m416.4530029 160.4530029c0-88.4740066-71.9790039-160.4530029-160.4530029-160.4530029s-160.4530029 71.9789963-160.4530029 160.4530029c0 82.1480103 62.0559998 150.0620117 141.7489929 159.3580017v98.901001h-27.8630066c-10.3300018 0-18.7039948 8.3739929-18.7039948 18.70401 0 10.3299866 8.3739929 18.70401 18.7039948 18.70401h27.8630066v37.1759949c0 10.3299866 8.375 18.7039795 18.7039948 18.7039795 10.3300018 0 18.7039948-8.3739929 18.7039948-18.70401v-37.1759949h27.8640137c10.3299866 0 18.70401-8.375 18.70401-18.70401 0-10.3299866-8.3739929-18.70401-18.70401-18.70401h-27.8640137v-98.901001c79.6930236-9.2949829 141.7490233-77.2099762 141.7490233-159.3579712zm-283.4980011 0c0-67.8470001 55.197998-123.0449982 123.0449982-123.0449982 67.8479919 0 123.0449829 55.197998 123.0449829 123.0449982 0 67.8479919-55.197998 123.0449829-123.0449982 123.0449829s-123.0449829-55.1969909-123.0449829-123.0449829z" fill="#ff94d4"/><g fill="#ff73c6"><path d="m246.647995 37.762001c-3.0870056-.2330017-6.2059937-.3530006-9.352005-.3530006-67.8470001 0-123.0449982 55.1980019-123.0449982 123.0449982 0 67.8480072 55.197998 123.0449982 123.0449982 123.0449982 3.1459961 0 6.2649994-.1199951 9.352005-.3529968-63.4949951-4.7940063-113.6930084-57.9909973-113.6930084-122.6920013.0000152-64.7010003 50.1980133-117.8979989 113.6930084-122.6919977z"/><path d="m256 493.29599c0 6.9190063-3.7669983 12.9460144-9.352005 16.1809998 3.2440033 1.8789978 7.0919952 2.8319702 11.1959991 2.4330139 9.6499939-.9389954 16.8599854-9.3439941 16.8599854-19.0400085v-36.75h-13.5090027c-2.868988 0-5.1959991 2.3259888-5.1959991 5.1960144v31.9799804z"/><path d="m256 0c-3.1399994 0-6.2559967.101-9.352005.28 84.1380157 4.8600001 151.1009979 74.8389969 151.1009979 160.1730042 0 80.6170044-59.7659912 147.5269775-137.3139954 158.7769775-2.5480041.3699939-4.4349975 2.5570056-4.4349975 5.1319873v89.1539917c0 2.868988 2.3259888 5.1960144 5.1960144 5.1960144h13.5090027v-98.901001c79.6940002-9.2950134 141.75-77.2099915 141.75-159.3580017-.0020142-88.4739761-71.9810181-160.4529724-160.4550171-160.4529724z"/><path d="m302.5679932 418.7120056h-18.70401c10.3299866 0 18.70401 8.3739929 18.70401 18.70401 0 10.3299866-8.3739929 18.70401-18.70401 18.70401h18.70401c10.3299866 0 18.70401-8.375 18.70401-18.70401 0-10.3300171-8.375-18.70401-18.70401-18.70401z"/></g>
	</symbol>
	<symbol viewBox="0 0 423.184 423.184" id="male">
		<path style="fill:#00BBD3;" d="M407.51,0H266.971c-8.882,0-15.673,6.792-15.673,15.673s6.792,15.673,15.673,15.673h102.922
		L264.882,136.359c-28.212-22.988-63.739-37.094-102.922-37.094C72.62,99.265,0,171.886,0,261.224s72.62,161.959,161.959,161.959
		s161.959-72.62,161.959-161.959c0-39.184-14.106-74.71-37.094-102.922L391.837,53.29v102.922c0,8.882,6.792,15.673,15.673,15.673
		s15.673-6.792,15.673-15.673V15.673C423.184,6.792,416.392,0,407.51,0z M161.959,391.837c-72.098,0-130.612-58.514-130.612-130.612
		s58.514-130.612,130.612-130.612s130.612,58.514,130.612,130.612S234.057,391.837,161.959,391.837z"/>
	</symbol>


	<!-- social -->
	<symbol id="fb" viewBox="0 0 512 512" >
		<g>
			<path style="fill:#1976D2;" d="M448,0H64C28.704,0,0,28.704,0,64v384c0,35.296,28.704,64,64,64h384c35.296,0,64-28.704,64-64V64
			C512,28.704,483.296,0,448,0z"/>
			<path style="fill:#FAFAFA;" d="M432,256h-80v-64c0-17.664,14.336-16,32-16h32V96h-64l0,0c-53.024,0-96,42.976-96,96v64h-64v80h64
			v176h96V336h48L432,256z"/>
		</g>
	</symbol>
	
</svg>