<svg xmlns="http://www.w3.org/2000/svg" style="display: none;">
    <symbol id="x" viewBox="0 0 469.333 469.333">
		<g>
			<path d="M426.667,0h-384C19.146,0,0,19.135,0,42.667v384c0,23.531,19.146,42.667,42.667,42.667h384
				c23.521,0,42.667-19.135,42.667-42.667v-384C469.333,19.135,450.188,0,426.667,0z M448,426.667
				c0,11.76-9.563,21.333-21.333,21.333h-384c-11.771,0-21.333-9.573-21.333-21.333v-384c0-11.76,9.563-21.333,21.333-21.333h384
				c11.771,0,21.333,9.573,21.333,21.333V426.667z"/>
			<path d="M338.208,131.125c-4.167-4.167-10.917-4.167-15.083,0l-88.458,88.458l-88.458-88.458c-4.167-4.167-10.917-4.167-15.083,0
				c-4.167,4.167-4.167,10.917,0,15.083l88.458,88.458l-88.458,88.458c-4.167,4.167-4.167,10.917,0,15.083
				c2.083,2.083,4.813,3.125,7.542,3.125s5.458-1.042,7.542-3.125l88.458-88.458l88.458,88.458c2.083,2.083,4.813,3.125,7.542,3.125
				c2.729,0,5.458-1.042,7.542-3.125c4.167-4.167,4.167-10.917,0-15.083l-88.458-88.458l88.458-88.458
				C342.375,142.042,342.375,135.292,338.208,131.125z"/>
		</g>
	</symbol>

	<!--poms select arrow-->
	<symbol viewBox="0 0 320.001 320.001" id="selectArrow">
		<path d="m295.84 146.049-256-144c-4.96-2.784-11.008-2.72-15.904.128-4.928 2.88-7.936 8.128-7.936 13.824v288c0 5.696 3.008 10.944 7.936 13.824 2.496 1.44 5.28 2.176 8.064 2.176 2.688 0 5.408-.672 7.84-2.048l256-144c5.024-2.848 8.16-8.16 8.16-13.952s-3.136-11.104-8.16-13.952z"/>
	</symbol>
</svg>