<svg xmlns="http://www.w3.org/2000/svg" class="hidden">
    <symbol id="x" viewBox="0 0 469.333 469.333">
		<g>
			<path d="M426.667,0h-384C19.146,0,0,19.135,0,42.667v384c0,23.531,19.146,42.667,42.667,42.667h384
				c23.521,0,42.667-19.135,42.667-42.667v-384C469.333,19.135,450.188,0,426.667,0z M448,426.667
				c0,11.76-9.563,21.333-21.333,21.333h-384c-11.771,0-21.333-9.573-21.333-21.333v-384c0-11.76,9.563-21.333,21.333-21.333h384
				c11.771,0,21.333,9.573,21.333,21.333V426.667z"/>
			<path d="M338.208,131.125c-4.167-4.167-10.917-4.167-15.083,0l-88.458,88.458l-88.458-88.458c-4.167-4.167-10.917-4.167-15.083,0
				c-4.167,4.167-4.167,10.917,0,15.083l88.458,88.458l-88.458,88.458c-4.167,4.167-4.167,10.917,0,15.083
				c2.083,2.083,4.813,3.125,7.542,3.125s5.458-1.042,7.542-3.125l88.458-88.458l88.458,88.458c2.083,2.083,4.813,3.125,7.542,3.125
				c2.729,0,5.458-1.042,7.542-3.125c4.167-4.167,4.167-10.917,0-15.083l-88.458-88.458l88.458-88.458
				C342.375,142.042,342.375,135.292,338.208,131.125z"/>
		</g>
	</symbol>

	<symbol id="x_without_border" viewBox="0 0 16 16">
		<path d="M4.646 4.646a.5.5 0 0 1 .708 0L8 7.293l2.646-2.647a.5.5 0 0 1 .708.708L8.707 8l2.647 2.646a.5.5 0 0 1-.708.708L8 8.707l-2.646 2.647a.5.5 0 0 1-.708-.708L7.293 8L4.646 5.354a.5.5 0 0 1 0-.708z"/>
	</symbol>

	<!-- poms gender -->
	<symbol viewBox="0 0 512 512" id="fem">
		<path d="m416.4530029 160.4530029c0-88.4740066-71.9790039-160.4530029-160.4530029-160.4530029s-160.4530029 71.9789963-160.4530029 160.4530029c0 82.1480103 62.0559998 150.0620117 141.7489929 159.3580017v98.901001h-27.8630066c-10.3300018 0-18.7039948 8.3739929-18.7039948 18.70401 0 10.3299866 8.3739929 18.70401 18.7039948 18.70401h27.8630066v37.1759949c0 10.3299866 8.375 18.7039795 18.7039948 18.7039795 10.3300018 0 18.7039948-8.3739929 18.7039948-18.70401v-37.1759949h27.8640137c10.3299866 0 18.70401-8.375 18.70401-18.70401 0-10.3299866-8.3739929-18.70401-18.70401-18.70401h-27.8640137v-98.901001c79.6930236-9.2949829 141.7490233-77.2099762 141.7490233-159.3579712zm-283.4980011 0c0-67.8470001 55.197998-123.0449982 123.0449982-123.0449982 67.8479919 0 123.0449829 55.197998 123.0449829 123.0449982 0 67.8479919-55.197998 123.0449829-123.0449982 123.0449829s-123.0449829-55.1969909-123.0449829-123.0449829z" fill="#ffc5f0"/><g fill="#ffc5f0"><path d="m246.647995 37.762001c-3.0870056-.2330017-6.2059937-.3530006-9.352005-.3530006-67.8470001 0-123.0449982 55.1980019-123.0449982 123.0449982 0 67.8480072 55.197998 123.0449982 123.0449982 123.0449982 3.1459961 0 6.2649994-.1199951 9.352005-.3529968-63.4949951-4.7940063-113.6930084-57.9909973-113.6930084-122.6920013.0000152-64.7010003 50.1980133-117.8979989 113.6930084-122.6919977z"/><path d="m256 493.29599c0 6.9190063-3.7669983 12.9460144-9.352005 16.1809998 3.2440033 1.8789978 7.0919952 2.8319702 11.1959991 2.4330139 9.6499939-.9389954 16.8599854-9.3439941 16.8599854-19.0400085v-36.75h-13.5090027c-2.868988 0-5.1959991 2.3259888-5.1959991 5.1960144v31.9799804z"/><path d="m256 0c-3.1399994 0-6.2559967.101-9.352005.28 84.1380157 4.8600001 151.1009979 74.8389969 151.1009979 160.1730042 0 80.6170044-59.7659912 147.5269775-137.3139954 158.7769775-2.5480041.3699939-4.4349975 2.5570056-4.4349975 5.1319873v89.1539917c0 2.868988 2.3259888 5.1960144 5.1960144 5.1960144h13.5090027v-98.901001c79.6940002-9.2950134 141.75-77.2099915 141.75-159.3580017-.0020142-88.4739761-71.9810181-160.4529724-160.4550171-160.4529724z"/><path d="m302.5679932 418.7120056h-18.70401c10.3299866 0 18.70401 8.3739929 18.70401 18.70401 0 10.3299866-8.3739929 18.70401-18.70401 18.70401h18.70401c10.3299866 0 18.70401-8.375 18.70401-18.70401 0-10.3300171-8.375-18.70401-18.70401-18.70401z"/></g>
	</symbol>
	<symbol viewBox="0 0 423.184 423.184" id="male">
		<path style="fill:#80bdff;" d="M407.51,0H266.971c-8.882,0-15.673,6.792-15.673,15.673s6.792,15.673,15.673,15.673h102.922
		L264.882,136.359c-28.212-22.988-63.739-37.094-102.922-37.094C72.62,99.265,0,171.886,0,261.224s72.62,161.959,161.959,161.959
		s161.959-72.62,161.959-161.959c0-39.184-14.106-74.71-37.094-102.922L391.837,53.29v102.922c0,8.882,6.792,15.673,15.673,15.673
		s15.673-6.792,15.673-15.673V15.673C423.184,6.792,416.392,0,407.51,0z M161.959,391.837c-72.098,0-130.612-58.514-130.612-130.612
		s58.514-130.612,130.612-130.612s130.612,58.514,130.612,130.612S234.057,391.837,161.959,391.837z"/>
	</symbol>


	<!-- social -->
	<symbol id="fb" viewBox="0 0 1024 1024" >
		<g>
			<path d="M880 112H144c-17.7 0-32 14.3-32 32v736c0 17.7 14.3 32 32 32h736c17.7 0 32-14.3 32-32V144c0-17.7-14.3-32-32-32zm-32 736H663.9V602.2h104l15.6-120.7H663.9v-77.1c0-35 9.7-58.8 59.8-58.8h63.9v-108c-11.1-1.5-49-4.8-93.2-4.8c-92.2 0-155.3 56.3-155.3 159.6v89H434.9v120.7h104.3V848H176V176h672v672z"/>
		</g>
	</symbol>

	<symbol id="wp" viewBox="0 0 448 512">
		<path d="M380.9 97.1C339 55.1 283.2 32 223.9 32c-122.4 0-222 99.6-222 222c0 39.1 10.2 77.3 29.6 111L0 480l117.7-30.9c32.4 17.7 68.9 27 106.1 27h.1c122.3 0 224.1-99.6 224.1-222c0-59.3-25.2-115-67.1-157zm-157 341.6c-33.2 0-65.7-8.9-94-25.7l-6.7-4l-69.8 18.3L72 359.2l-4.4-7c-18.5-29.4-28.2-63.3-28.2-98.2c0-101.7 82.8-184.5 184.6-184.5c49.3 0 95.6 19.2 130.4 54.1c34.8 34.9 56.2 81.2 56.1 130.5c0 101.8-84.9 184.6-186.6 184.6zm101.2-138.2c-5.5-2.8-32.8-16.2-37.9-18c-5.1-1.9-8.8-2.8-12.5 2.8c-3.7 5.6-14.3 18-17.6 21.8c-3.2 3.7-6.5 4.2-12 1.4c-32.6-16.3-54-29.1-75.5-66c-5.7-9.8 5.7-9.1 16.3-30.3c1.8-3.7.9-6.9-.5-9.7c-1.4-2.8-12.5-30.1-17.1-41.2c-4.5-10.8-9.1-9.3-12.5-9.5c-3.2-.2-6.9-.2-10.6-.2c-3.7 0-9.7 1.4-14.8 6.9c-5.1 5.6-19.4 19-19.4 46.3c0 27.3 19.9 53.7 22.6 57.4c2.8 3.7 39.1 59.7 94.8 83.8c35.2 15.2 49 16.5 66.6 13.9c10.7-1.6 32.8-13.4 37.4-26.4c4.6-13 4.6-24.1 3.2-26.4c-1.3-2.5-5-3.9-10.5-6.6z"/>
	</symbol>

	<symbol id="inst" viewBox="0 0 24 24">
		<path d="M12 2c-2.716 0-3.056.012-4.123.06c-1.064.049-1.791.218-2.427.465a4.901 4.901 0 0 0-1.772 1.153A4.902 4.902 0 0 0 2.525 5.45c-.247.636-.416 1.363-.465 2.427C2.011 8.944 2 9.284 2 12s.011 3.056.06 4.123c.049 1.064.218 1.791.465 2.427a4.903 4.903 0 0 0 1.153 1.772a4.903 4.903 0 0 0 1.772 1.153c.636.247 1.363.416 2.427.465c1.067.048 1.407.06 4.123.06s3.056-.012 4.123-.06c1.064-.049 1.791-.218 2.427-.465a4.902 4.902 0 0 0 1.772-1.153a4.902 4.902 0 0 0 1.153-1.772c.247-.636.416-1.363.465-2.427c.048-1.067.06-1.407.06-4.123s-.012-3.056-.06-4.123c-.049-1.064-.218-1.791-.465-2.427a4.902 4.902 0 0 0-1.153-1.772a4.901 4.901 0 0 0-1.772-1.153c-.636-.247-1.363-.416-2.427-.465C15.056 2.012 14.716 2 12 2m0 1.802c2.67 0 2.986.01 4.04.058c.976.045 1.505.207 1.858.344c.466.182.8.399 1.15.748c.35.35.566.684.748 1.15c.136.353.3.882.344 1.857c.048 1.055.058 1.37.058 4.041c0 2.67-.01 2.986-.058 4.04c-.045.976-.208 1.505-.344 1.858a3.1 3.1 0 0 1-.748 1.15c-.35.35-.684.566-1.15.748c-.353.136-.882.3-1.857.344c-1.054.048-1.37.058-4.041.058c-2.67 0-2.987-.01-4.04-.058c-.976-.045-1.505-.208-1.858-.344a3.098 3.098 0 0 1-1.15-.748a3.098 3.098 0 0 1-.748-1.15c-.137-.353-.3-.882-.344-1.857c-.048-1.055-.058-1.37-.058-4.041c0-2.67.01-2.986.058-4.04c.045-.976.207-1.505.344-1.858c.182-.466.399-.8.748-1.15c.35-.35.684-.566 1.15-.748c.353-.137.882-.3 1.857-.344c1.055-.048 1.37-.058 4.041-.058m0 11.531a3.333 3.333 0 1 1 0-6.666a3.333 3.333 0 0 1 0 6.666m0-8.468a5.135 5.135 0 1 0 0 10.27a5.135 5.135 0 0 0 0-10.27m6.538-.203a1.2 1.2 0 1 1-2.4 0a1.2 1.2 0 0 1 2.4 0"/>
	</symbol>

	<!-- Admin -->
	<!-- check -->
	<symbol id="check" viewBox="0 0 515.556 515.556">
		<path d="m0 274.226 176.549 176.886 339.007-338.672-48.67-47.997-290.337 290-128.553-128.552z"/>
	</symbol>

	<!-- just an arrow -->
	<symbol id="arrow" viewBox="0 0 20 20">
		<path d="M5 6l5 5l5-5l2 1l-7 7l-7-7z"/>
	</symbol>

	<!-- Flags -->
	<symbol id="aze" viewBox="0 0 512 512">
		<g>
			<g>
				<path style="fill:#D80027;" d="M512,256c0-31.314-5.632-61.311-15.923-89.043L256,155.826l-240.077,11.13
					C5.633,194.689,0,224.686,0,256s5.633,61.311,15.923,89.043L256,356.174l240.077-11.13C506.368,317.311,512,287.314,512,256z"/>
				<path style="fill:#6DA544;" d="M256,512c110.071,0,203.906-69.472,240.077-166.957H15.923C52.094,442.528,145.929,512,256,512z"/>
				<path style="fill:#338AF3;" d="M15.923,166.957h480.155C459.906,69.472,366.071,0,256,0S52.094,69.472,15.923,166.957z"/>
			</g>
			
			<g>
				<path style="fill:#F0F0F0;" d="M261.565,328.348c-39.956,0-72.348-32.392-72.348-72.348s32.392-72.348,72.348-72.348
				c12.458,0,24.181,3.15,34.415,8.696c-16.056-15.701-38.012-25.392-62.241-25.392c-49.178,0-89.043,39.866-89.043,89.043
				s39.866,89.043,89.043,89.043c24.23,0,46.186-9.691,62.241-25.392C285.746,325.198,274.023,328.348,261.565,328.348z"/>
				<polygon style="fill:#F0F0F0;" points="317.217,205.913 326.8,232.864 352.634,220.582 340.353,246.416 367.304,256 
				340.353,265.584 352.634,291.418 326.8,279.136 317.217,306.087 307.635,279.136 281.8,291.418 294.082,265.584 267.13,256 
				294.082,246.416 281.8,220.582 307.635,232.864 	"/>
			</g>
		</g>
	</symbol>

	<symbol id="germany" viewBox="0 0 512 512">
		<g>
			<path style="fill:#FFDA44;" d="M15.923,345.043C52.094,442.527,145.929,512,256,512s203.906-69.473,240.077-166.957L256,322.783
			L15.923,345.043z"/>
			<path d="M256,0C145.929,0,52.094,69.472,15.923,166.957L256,189.217l240.077-22.261C459.906,69.472,366.071,0,256,0z"/>
			<path style="fill:#D80027;" d="M15.923,166.957C5.633,194.69,0,224.686,0,256s5.633,61.31,15.923,89.043h480.155
			C506.368,317.31,512,287.314,512,256s-5.632-61.31-15.923-89.043H15.923z"/>
		</g>
	</symbol>

	<!-- Home page footer CTAs -->
	<symbol id="backToTop" viewBox="0 0 32 32">
		<path d="M16 14L6 24l1.4 1.4l8.6-8.6l8.6 8.6L26 24z"/><path d="M4 8h24v2H4z"/>
	</symbol>

	<symbol id="search" viewBox="0 0 20 20">
		<path d="M8.5 3a5.5 5.5 0 0 1 4.227 9.02l4.127 4.126a.5.5 0 0 1-.638.765l-.07-.057l-4.126-4.127A5.5 5.5 0 1 1 8.5 3zm0 1a4.5 4.5 0 1 0 0 9a4.5 4.5 0 0 0 0-9z"/>
	</symbol>

	<!-- Home page FLEX (advantages of bofc) -->
	<symbol id="certificate" viewBox="0 0 74 74">
		<path d="m44.905 57.72h-.181c-4.13-.141-9.736-.99-12.982-4.237a1 1 0 0 1 1.414-1.414c2.933 2.933 8.549 3.547 11.637 3.652a3.327 3.327 0 0 0 3.429-2.778c.334-1.853-.923-3.474-3.128-4.035l-5.42-1.378a16.25 16.25 0 0 1 -4.414-1.871c-1.167-.707-2.625-1.524-4.335-2.43-6.459-3.421-12.806-2.549-18.352 2.524a1 1 0 1 1 -1.35-1.476c6.226-5.695 13.363-6.669 20.638-2.816 1.744.924 3.236 1.76 4.435 2.487a14.261 14.261 0 0 0 3.871 1.643l5.419 1.378c3.235.822 5.128 3.424 4.6 6.328a5.4 5.4 0 0 1 -5.281 4.423z"/><path d="m38.94 68.969a14.541 14.541 0 0 1 -7.82-2.29l-6.882-4.379a3.153 3.153 0 0 0 -2.867-.263l-9.1 3.676a1 1 0 0 1 -.749-1.854l9.1-3.676a5.154 5.154 0 0 1 4.69.43l6.882 4.38a12.5 12.5 0 0 0 14.054-.384l22.332-15.989a3.4 3.4 0 0 0 .42-5.167 3.353 3.353 0 0 0 -4.128-.531l-14.92 9.823a1 1 0 0 1 -1.1-1.671l14.924-9.822a5.4 5.4 0 0 1 5.967 8.995l-22.33 15.987a14.533 14.533 0 0 1 -8.473 2.735z"/><path d="m45.34 48.937a1 1 0 0 1 -.549-1.836l9.888-6.473a7.507 7.507 0 0 1 9.708 1.234 1 1 0 0 1 -1.479 1.346 5.518 5.518 0 0 0 -7.133-.907l-9.888 6.473a.993.993 0 0 1 -.547.163z"/><path d="m39.149 47.335a1 1 0 0 1 -.567-1.824l8.681-5.968a7.024 7.024 0 0 1 9.082 1.011 1 1 0 1 1 -1.468 1.358 5.012 5.012 0 0 0 -6.481-.721l-8.682 5.969a1 1 0 0 1 -.565.175z"/><path d="m6.873 69.539h-3.873a1 1 0 0 1 -1-1v-27.684a1 1 0 0 1 1-1h3.873a6.031 6.031 0 0 1 6.027 6.025v17.634a6.031 6.031 0 0 1 -6.027 6.025zm-2.873-2h2.873a4.029 4.029 0 0 0 4.027-4.025v-17.634a4.029 4.029 0 0 0 -4.025-4.024h-2.875z"/><path d="m30.446 36.163a1 1 0 0 1 -.659-.248c-.579-.507-14.179-12.516-14.775-21.288a9.508 9.508 0 0 1 2.567-7.2 9.171 9.171 0 0 1 6.645-2.962 8.757 8.757 0 0 1 6.222 2.66 8.757 8.757 0 0 1 6.222-2.66 9.171 9.171 0 0 1 6.645 2.962 9.508 9.508 0 0 1 2.567 7.2c-.6 8.772-14.2 20.781-14.775 21.288a1 1 0 0 1 -.659.248zm-6.222-29.7a7.163 7.163 0 0 0 -5.184 2.326 7.527 7.527 0 0 0 -2.033 5.7c.471 6.931 10.715 16.81 13.439 19.321 2.723-2.512 12.968-12.4 13.439-19.322a7.528 7.528 0 0 0 -2.033-5.7 7.165 7.165 0 0 0 -5.184-2.328 6.9 6.9 0 0 0 -5.432 2.786 1.035 1.035 0 0 1 -1.58 0 6.9 6.9 0 0 0 -5.432-2.785z"/><path d="m41.392 38.961a1 1 0 0 1 -.659-.248 70.543 70.543 0 0 1 -6.8-7.02 1 1 0 1 1 1.533-1.284 70.643 70.643 0 0 0 5.93 6.2c2.49-2.305 11.2-10.771 11.6-16.694a6.45 6.45 0 0 0 -1.744-4.883 6.014 6.014 0 0 0 -6.187-1.706 1 1 0 1 1 -.634-1.9 8.042 8.042 0 0 1 8.281 2.236 8.43 8.43 0 0 1 2.278 6.384c-.522 7.7-12.434 18.218-12.94 18.662a1 1 0 0 1 -.658.253z"/>
	</symbol>
	<symbol id="trophey" viewBox="0 0 512 512">
		<g>
			<g>
				<path d="M405.228,20.608c-4.824,0-9.792,0.624-14.752,1.848l3.816,15.528c30.248-7.424,56.624,15.592,56.624,44.32
					c0,67.288-76.624,116.88-108.568,126.216l4.488,15.36c40.576-11.864,120.088-67.264,120.096-141.576
					C466.932,48.28,439.252,20.608,405.228,20.608z"/>
			</g>
		</g>
		<g>
			<g>
				<path d="M61.06,82.304c0-28.728,26.368-51.776,56.624-44.312l3.832-15.536c-40.032-9.84-76.448,21.008-76.448,59.848
					c0,74.32,79.52,129.72,120.08,141.576l4.488-15.36C137.684,199.176,61.06,149.592,61.06,82.304z"/>
			</g>
		</g>
		<g>
			<g>
				<path d="M283.74,297.8h-55.488c-4.416,0-8,3.576-8,8v30.36c0,2.408,1.096,4.704,2.976,6.224c1.432,1.16,3.208,1.776,5.024,1.776
					c0.56,0,1.128-0.064,1.688-0.184c16.48-3.56,35.64-3.56,52.112,0c2.368,0.496,4.832-0.08,6.712-1.592
					c1.88-1.52,2.976-3.8,2.976-6.224V305.8C291.74,301.376,288.164,297.8,283.74,297.8z M275.74,326.624
					c-12.816-1.768-26.672-1.776-39.488,0.008V313.8v-0.008h39.488V326.624z"/>
			</g>
		</g>
		<g>
			<g>
				<path d="M363.972,466.448H148.02c-4.416,0-8,3.576-8,8V504c0,4.424,3.584,8,8,8h215.952c4.424,0,8-3.576,8-8v-29.552
					C371.972,470.024,368.396,466.448,363.972,466.448z M355.972,496H156.02v-13.552h199.952V496z"/>
			</g>
		</g>
		<g>
			<g>
				<path d="M350.124,353.736H161.868c-4.416,0-8,3.576-8,8v112.712c0,4.424,3.584,8,8,8h188.256c4.416,0,8-3.584,8-8V361.736
					C358.124,357.312,354.548,353.736,350.124,353.736z M342.124,466.448H169.868v-96.712h172.256V466.448z"/>
			</g>
		</g>
		<g>
			<g>
				<path d="M318.132,385.728H193.868c-4.416,0-8,3.576-8,8v48.712c0,4.424,3.584,8,8,8h124.264c4.416,0,8-3.584,8-8v-48.712
					C326.132,389.304,322.556,385.728,318.132,385.728z M310.132,434.44H201.868v-32.712h108.264V434.44z"/>
			</g>
		</g>
		<g>
			<g>
				<path d="M396.988,4.024C394.428,1.432,391.02,0,387.388,0H124.612c-3.616,0-7.024,1.424-9.584,4c-2.56,2.584-3.96,6-3.944,9.632
					c0.056,5.448,0.272,10.808,0.52,16.912c0.2,4.928,0.48,9.808,0.808,14.664c3.992,59.248,17.192,113.384,38.184,156.56
					c3.088,6.352,6.424,12.576,9.904,18.48c16.032,27.224,34.392,46.752,54.592,58.056c2.12,1.184,4.64,1.336,6.848,0.456
					c1.856,0.064,3.952,0.064,6.304,0.064h61.936c0.904,0.336,1.856,0.504,2.808,0.504c1.344,0,2.688-0.336,3.912-1.016
					c20.192-11.296,38.56-30.832,54.592-58.056c3.456-5.896,6.784-12.112,9.888-18.472c21.008-43.2,34.208-97.344,38.192-156.568
					c0.32-4.856,0.6-9.72,0.8-14.688c0.232-5.592,0.456-11.192,0.512-16.856C400.932,10.04,399.548,6.616,396.988,4.024z
					M384.388,29.888c-0.208,4.792-0.464,9.528-0.784,14.248c-3.84,57.192-16.504,109.28-36.616,150.64
					c-2.912,5.984-6.04,11.832-9.288,17.36c-13.648,23.176-29.504,40.632-46.008,50.68h-63.44c0.016,0.008-5.376,0-7.944,0
					c-16.512-10.056-32.368-27.504-46.008-50.688c-3.264-5.544-6.392-11.376-9.296-17.352c-20.104-41.344-32.76-93.432-36.616-150.64
					c-0.312-4.712-0.584-9.456-0.808-14.968c-0.176-4.376-0.36-8.752-0.44-13.168h257.704
					C384.764,20.664,384.572,25.272,384.388,29.888z"/>
			</g>
		</g>
		<g>
			<g>
				<path d="M352.108,34.64c-0.128,2.512-0.272,4.88-0.432,7.224c-3.336,49.568-14.616,96.288-31.768,131.552
					c-2.4,4.928-5.008,9.808-7.752,14.48c-9.48,16.096-20.104,28.592-30.712,36.144l9.28,13.04
					c12.432-8.848,24.6-23.048,35.224-41.064c2.96-5.048,5.776-10.296,8.352-15.6c18.024-37.08,29.864-85.904,33.344-137.496
					c0.16-2.44,0.304-4.864,0.448-7.448L352.108,34.64z"/>
			</g>
		</g>
		<g>
			<g>
				<path d="M283.74,262.824h-55.848c-13.464,0-14.8,26.104-14.8,26.368c0,0.248,1.568,24.616,15.16,24.616h55.856
					c13.232,0,14.8-24.368,14.8-24.616C298.908,288.928,297.572,262.824,283.74,262.824z M280.82,297.808h-49.648
					c-1.04-2.624-2.056-6.984-2.088-8.608c0.024-1.944,1.184-7.288,2.328-10.376h49.168c1.152,3.088,2.304,8.432,2.328,10.36
					C282.884,290.824,281.86,295.192,280.82,297.808z"/>
			</g>
		</g>
		<g>
			<g>
				<path d="M285.428,328.336c-18.688-4.024-40.168-4.04-58.864,0c-26.504,5.736-42.328,18.224-42.328,33.392c0,4.424,3.584,8,8,8
					h127.52c4.416,0,8-3.576,8-8C327.756,346.552,311.932,334.072,285.428,328.336z M205.884,353.728
					c4.944-3.72,13.056-7.368,24.056-9.752c16.488-3.56,35.648-3.56,52.104,0c11.008,2.384,19.12,6.032,24.064,9.752H205.884z"/>
			</g>
		</g>
	</symbol>
	<symbol id="care" viewBox="0 0 512 512">
		<g><path d="m454 83.515-83.515-83.515h-248.485v272.274c-35.797 3.056-64 33.15-64 69.726 0 21 9.308 39.854 24 52.696v117.304h16.485l29.515-29.515 29.515 29.515h16.485v-52h280zm-80-63.03 59.515 59.515h-59.515zm-304 321.515c0-31.981 26.019-58 58-58s58 26.019 58 58-26.019 58-58 58-58-26.019-58-58zm58 123.515-34 34v-96.356c10.075 5.623 21.666 8.842 34 8.842s23.925-3.219 34-8.842v96.356zm46-17.515v-53.304c14.692-12.842 24-31.696 24-52.696 0-36.575-28.203-66.669-64-69.726v-260.274h228v80h80v356z"/><path d="m176 64h96v12h-96z"/><path d="m176 96h64v12h-64z"/><path d="m176 144h224v12h-224z"/><path d="m176 176h224v12h-224z"/><path d="m176 240h224v12h-224z"/><path d="m208 272h160v12h-160z"/><path d="m176 208h224v12h-224z"/><path d="m304 320h96v12h-96z"/><path d="m336 352h64v12h-64z"/><path d="m128 380c20.953 0 38-17.047 38-38s-17.047-38-38-38-38 17.047-38 38 17.047 38 38 38zm0-64c14.337 0 26 11.663 26 26s-11.663 26-26 26-26-11.663-26-26 11.663-26 26-26z"/></g>
	</symbol>

	<!-- Info icon for show single pom page -->
	<symbol id="info" viewBox="0 0 20 20">
		<path d="M10 .4C4.697.4.399 4.698.399 10A9.6 9.6 0 0 0 10 19.601c5.301 0 9.6-4.298 9.6-9.601c0-5.302-4.299-9.6-9.6-9.6zm.896 3.466c.936 0 1.211.543 1.211 1.164c0 .775-.62 1.492-1.679 1.492c-.886 0-1.308-.445-1.282-1.182c0-.621.519-1.474 1.75-1.474zM8.498 15.75c-.64 0-1.107-.389-.66-2.094l.733-3.025c.127-.484.148-.678 0-.678c-.191 0-1.022.334-1.512.664l-.319-.523c1.555-1.299 3.343-2.061 4.108-2.061c.64 0 .746.756.427 1.92l-.84 3.18c-.149.562-.085.756.064.756c.192 0 .82-.232 1.438-.719l.362.486c-1.513 1.512-3.162 2.094-3.801 2.094z"/>
	</symbol>

	<!-- Pagination double arrows -->
	<symbol id='double-right' viewBox="0 0 15 15">
		<path fill-rule="evenodd" clip-rule="evenodd" d="M2.146 11.146a.5.5 0 0 0 .708.708l4-4a.5.5 0 0 0 0-.708l-4-4a.5.5 0 1 0-.708.708L5.793 7.5l-3.647 3.646zm6 0a.5.5 0 0 0 .708.708l4-4a.5.5 0 0 0 0-.708l-4-4a.5.5 0 1 0-.708.708L11.793 7.5l-3.647 3.646z"/>
	</symbol>

	<symbol id='double-left' viewBox="0 0 15 15">
		<path fill-rule="evenodd" clip-rule="evenodd" d="M6.854 3.854a.5.5 0 1 0-.708-.708l-4 4a.5.5 0 0 0 0 .708l4 4a.5.5 0 0 0 .708-.708L3.207 7.5l3.647-3.646zm6 0a.5.5 0 0 0-.708-.708l-4 4a.5.5 0 0 0 0 .708l4 4a.5.5 0 0 0 .708-.708L9.207 7.5l3.647-3.646z"/>
	</symbol>
</svg>