<?xml version="1.0" standalone="no"?>
<!DOCTYPE svg PUBLIC "-//W3C//DTD SVG 20010904//EN"
 "http://www.w3.org/TR/2001/REC-SVG-20010904/DTD/svg10.dtd">
<svg version="1.0" xmlns="http://www.w3.org/2000/svg"
 width="501.000000pt" height="501.000000pt" viewBox="0 0 501.000000 501.000000"
 preserveAspectRatio="xMidYMid meet">
<metadata>
Created by potrace 1.11, written by Peter Selinger 2001-2013
</metadata>
<g transform="translate(0.000000,501.000000) scale(0.100000,-0.100000)"
fill="#000000" stroke="none">
<path d="M2308 5005 c-2 -1 -32 -6 -68 -9 -96 -10 -188 -26 -350 -61 -201 -44
-535 -189 -737 -320 -178 -116 -275 -195 -438 -360 -389 -393 -628 -895 -699
-1472 -13 -106 -14 -477 -2 -553 3 -19 8 -55 11 -80 9 -73 44 -235 77 -349 43
-149 100 -293 174 -437 270 -528 708 -935 1258 -1169 108 -45 338 -120 406
-131 19 -3 38 -8 41 -9 8 -5 185 -33 265 -42 92 -10 397 -10 504 0 102 10 124
13 220 32 14 3 39 8 55 11 17 2 38 7 47 10 9 3 25 7 35 9 58 12 242 72 328
107 312 127 594 315 830 552 382 384 614 841 706 1386 35 211 32 590 -7 819
-17 100 -101 403 -124 451 -4 8 -22 51 -41 95 -90 220 -247 473 -412 663 -38
45 -197 204 -252 252 -69 61 -203 160 -308 227 -102 64 -322 177 -407 208
-339 124 -559 166 -897 170 -116 2 -213 2 -215 0z"/>
</g>
</svg>
